<?xml version="1.0" standalone="no"?>
<!DOCTYPE svg PUBLIC "-//W3C//DTD SVG 20010904//EN"
 "http://www.w3.org/TR/2001/REC-SVG-20010904/DTD/svg10.dtd">
<svg version="1.0" xmlns="http://www.w3.org/2000/svg"
 width="1280.000000pt" height="1232.000000pt" viewBox="0 0 1280.000000 1232.000000"
 preserveAspectRatio="xMidYMid meet">
<metadata>
Created by potrace 1.15, written by Peter Selinger 2001-2017
</metadata>
<g transform="translate(0.000000,1232.000000) scale(0.100000,-0.100000)"
fill="#ffbd4a" stroke="none">
<path d="M3748 12297 c-21 -12 -62 -41 -91 -64 -29 -24 -112 -69 -185 -102
-190 -85 -271 -151 -367 -301 -80 -122 -125 -242 -201 -524 -63 -235 -61 -232
-214 -354 -147 -117 -240 -201 -427 -386 -95 -93 -175 -168 -178 -165 -13 13
39 142 84 210 26 41 101 137 166 214 183 218 221 292 255 497 34 203 71 260
255 400 65 50 70 57 73 96 3 47 0 48 -60 32 -26 -8 -71 -43 -151 -118 -62 -59
-166 -147 -232 -197 -66 -49 -163 -133 -216 -186 -85 -84 -103 -109 -148 -200
-86 -176 -122 -351 -141 -689 -7 -116 -16 -205 -24 -220 -7 -14 -63 -90 -126
-170 -133 -170 -272 -367 -356 -500 -56 -90 -59 -93 -62 -63 -5 48 39 166 128
344 129 256 139 296 156 583 7 133 18 258 24 278 15 52 72 133 163 232 64 70
79 93 86 131 8 45 8 46 -13 41 -11 -3 -27 -6 -33 -6 -23 0 -95 -73 -163 -165
-37 -49 -120 -146 -185 -215 -179 -190 -244 -282 -279 -399 -19 -66 -23 -425
-7 -616 28 -316 14 -405 -104 -655 -133 -282 -221 -496 -272 -660 -4 -13 -6
-13 -13 1 -13 23 5 163 35 275 57 209 65 253 71 374 6 112 4 141 -22 275 -21
108 -29 181 -29 260 l0 110 47 95 c26 52 68 131 92 175 44 78 76 168 64 180
-3 4 -23 1 -44 -4 -57 -16 -90 -65 -307 -463 -228 -417 -239 -500 -121 -989
25 -107 61 -246 80 -310 18 -64 38 -147 44 -186 12 -76 14 -61 -54 -363 -19
-85 -47 -222 -60 -303 -14 -82 -30 -156 -35 -165 -18 -32 -24 57 -12 167 6 58
11 174 11 257 0 182 -9 216 -112 438 -85 184 -112 277 -105 361 2 33 25 121
50 195 49 144 70 260 47 260 -7 0 -29 -12 -48 -27 -45 -34 -78 -108 -137 -308
-114 -387 -131 -474 -122 -634 10 -184 48 -283 262 -691 111 -211 135 -264
136 -300 0 -25 -3 -156 -7 -292 -6 -224 2 -476 22 -640 7 -57 -6 -62 -35 -15
-24 39 -43 123 -66 297 -34 258 -68 349 -216 571 -106 158 -144 235 -165 328
-15 67 -16 93 -4 246 7 93 11 186 9 205 -4 31 -7 35 -34 35 -56 0 -78 -83 -95
-365 -5 -91 -15 -221 -21 -290 -20 -220 0 -389 58 -504 62 -122 209 -324 388
-531 155 -179 199 -236 213 -271 6 -16 20 -92 32 -169 17 -110 74 -357 136
-590 4 -17 1 -16 -19 7 -14 15 -41 75 -62 140 -94 280 -150 375 -313 525 -264
245 -281 273 -334 553 l-23 125 -35 0 -35 0 -3 -53 c-2 -32 11 -123 32 -230
20 -97 45 -233 56 -302 39 -238 70 -327 155 -438 71 -94 258 -256 563 -487 88
-67 93 -73 119 -140 58 -155 145 -358 218 -509 42 -87 75 -166 73 -175 -6 -30
-80 76 -161 231 -155 298 -197 339 -449 438 -128 49 -213 109 -262 182 -20 29
-36 56 -36 61 0 4 -16 40 -36 80 -33 68 -78 127 -96 127 -4 0 -8 -30 -8 -66 0
-81 20 -134 146 -385 113 -224 196 -353 278 -434 71 -69 221 -153 525 -294
l186 -87 90 -150 c139 -230 328 -497 466 -656 38 -45 68 -83 65 -85 -9 -9 -72
32 -124 81 -30 28 -99 107 -152 176 -175 224 -221 257 -465 335 -100 32 -197
70 -234 92 -90 53 -168 133 -231 236 -30 48 -68 105 -86 125 -32 37 -32 37
-53 18 -16 -14 -21 -31 -21 -66 0 -42 11 -66 99 -212 154 -259 236 -373 341
-478 134 -134 233 -183 682 -340 112 -39 246 -88 298 -108 l95 -37 177 -172
c98 -94 235 -220 305 -280 70 -59 148 -127 173 -151 44 -42 45 -42 15 -36 -83
19 -173 81 -345 239 -121 111 -196 164 -278 196 -49 19 -84 23 -257 29 -119 4
-217 12 -243 20 -26 8 -72 39 -118 79 -111 97 -154 131 -168 131 -13 0 -36
-41 -36 -65 0 -44 328 -372 515 -516 106 -81 222 -136 337 -159 90 -19 139
-24 535 -55 100 -8 204 -20 230 -26 30 -8 92 -43 168 -95 156 -106 293 -190
488 -298 86 -48 157 -90 157 -93 0 -3 -33 -4 -73 -1 -91 6 -157 35 -286 126
-209 149 -199 145 -496 147 -340 2 -451 27 -621 141 -53 36 -103 64 -113 62
-11 -2 -17 -16 -19 -42 -3 -32 2 -44 30 -73 45 -46 200 -165 328 -250 342
-227 469 -264 814 -233 162 14 532 34 596 33 40 -1 77 -12 135 -38 189 -87
380 -158 724 -271 11 -3 11 -7 1 -19 -9 -11 -35 -15 -100 -15 -96 0 -150 15
-265 72 -113 57 -210 88 -274 88 -36 0 -99 -12 -162 -30 -165 -49 -438 -62
-589 -29 -24 6 -96 33 -158 60 -91 40 -116 48 -128 38 -66 -55 94 -160 432
-282 435 -158 592 -177 931 -108 149 30 366 96 472 143 l54 24 101 -23 c162
-37 458 -90 636 -113 91 -12 166 -23 168 -25 3 -2 -13 -11 -34 -20 -68 -30
-156 -30 -298 -1 -71 14 -159 26 -196 26 -61 0 -75 -5 -166 -52 -170 -88 -187
-96 -254 -113 -80 -21 -271 -44 -365 -45 -38 0 -123 8 -187 17 -65 9 -120 14
-124 11 -3 -4 -1 -22 5 -41 15 -44 56 -62 195 -84 55 -8 172 -28 258 -45 377
-70 566 -76 726 -22 64 22 298 134 375 180 34 20 106 68 159 106 92 64 100 68
152 68 40 0 56 -4 56 -13 0 -8 -35 -36 -77 -64 -118 -77 -257 -197 -478 -413
-110 -108 -222 -212 -250 -231 -125 -91 -232 -122 -485 -142 -30 -2 -21 -7 65
-35 209 -70 395 -101 615 -105 l144 -2 22 84 c100 377 281 680 489 820 40 27
96 56 124 66 48 16 54 16 101 0 163 -54 368 -279 489 -536 51 -109 111 -283
131 -383 l12 -59 167 6 c220 8 396 39 621 110 l75 23 -95 8 c-190 15 -306 53
-420 138 -30 23 -147 132 -260 243 -194 191 -366 337 -510 436 l-65 44 64 3
c54 3 70 -1 95 -20 149 -110 473 -286 610 -332 156 -53 359 -43 844 40 206 35
281 56 326 91 26 21 27 19 -9 71 -1 1 -40 -4 -86 -12 -197 -33 -375 -29 -544
14 -49 12 -135 48 -221 91 -176 89 -206 93 -408 55 -163 -30 -210 -32 -283 -9
-88 28 -70 39 86 53 207 19 477 66 687 119 l72 18 118 -49 c150 -62 321 -110
515 -142 177 -30 208 -31 343 -10 139 22 292 70 556 175 228 90 298 126 357
182 l33 31 -22 23 c-26 27 -26 27 -168 -37 -135 -61 -180 -70 -353 -70 -165 0
-233 10 -375 52 -159 46 -187 44 -372 -35 -203 -86 -254 -100 -346 -95 -112 5
-114 21 -8 53 161 47 548 192 704 264 57 26 101 26 495 1 422 -28 479 -27 589
5 128 37 259 108 473 257 236 163 267 188 300 245 l27 46 -24 19 c-13 10 -30
16 -38 13 -8 -3 -65 -37 -126 -75 -103 -64 -119 -70 -221 -91 -88 -17 -161
-23 -365 -28 l-255 -6 -70 -36 c-38 -19 -119 -70 -178 -112 -125 -88 -195
-118 -292 -124 -66 -4 -69 -3 -50 12 11 9 71 43 133 76 147 77 347 200 490
300 62 43 121 83 130 88 25 13 150 28 337 41 365 25 522 51 640 109 148 73
415 293 583 481 99 111 110 130 94 165 -19 42 -50 31 -142 -48 -102 -88 -134
-110 -180 -127 -21 -7 -117 -15 -235 -20 -171 -6 -208 -10 -257 -29 -83 -32
-159 -86 -304 -217 -162 -145 -228 -190 -323 -219 -22 -7 -23 -6 -10 13 8 11
53 50 99 88 137 109 296 253 435 394 72 72 142 138 157 146 15 8 175 68 355
133 405 147 472 173 550 217 136 76 213 158 366 392 201 308 237 377 237 458
0 43 -1 44 -32 44 -36 -1 -45 -10 -139 -163 -64 -103 -96 -137 -186 -198 -82
-56 -127 -75 -279 -119 -212 -62 -301 -128 -464 -345 -56 -74 -120 -150 -143
-169 -42 -34 -107 -71 -107 -61 0 3 44 61 98 129 121 151 271 366 382 546 46
74 94 152 107 172 25 41 99 82 406 224 193 89 273 141 364 237 106 111 190
260 317 560 66 155 87 238 67 267 -17 26 -73 -40 -109 -129 -74 -181 -149
-244 -407 -341 -153 -57 -244 -155 -366 -395 -76 -147 -122 -220 -146 -229
-20 -8 -12 13 75 199 94 201 151 337 186 441 31 95 37 101 251 267 159 122
364 300 428 370 22 23 52 69 68 102 38 81 95 292 119 445 11 69 31 188 45 265
31 175 32 211 5 225 -31 17 -54 -16 -74 -106 -65 -292 -77 -317 -193 -432 -49
-48 -123 -118 -166 -155 -122 -108 -189 -221 -272 -457 -50 -144 -86 -222 -92
-204 -2 6 14 83 36 170 49 196 86 373 100 479 19 134 32 160 139 281 124 139
325 390 389 485 68 100 128 222 148 300 14 53 16 92 11 234 -3 94 -10 215 -16
270 -5 55 -14 161 -20 235 -6 74 -18 167 -28 205 l-17 70 -35 0 -35 0 1 -105
c0 -58 4 -159 8 -225 8 -115 7 -123 -18 -200 -32 -94 -60 -144 -177 -322 -128
-193 -164 -299 -214 -622 -24 -160 -52 -251 -76 -251 -8 0 -10 14 -6 48 20
160 29 411 23 657 -4 149 -7 281 -7 294 -1 23 41 111 224 466 51 99 110 227
131 285 37 101 38 109 38 230 -1 224 -65 520 -173 797 -49 124 -70 153 -111
153 -30 0 -31 0 -25 -44 4 -24 27 -108 52 -187 52 -160 64 -251 46 -326 -7
-26 -48 -125 -92 -219 -125 -271 -134 -328 -115 -716 7 -128 6 -178 -2 -178
-6 0 -14 21 -17 48 -21 166 -52 331 -92 492 -62 253 -62 256 26 575 156 567
165 733 55 985 -22 48 -92 180 -267 495 -97 177 -144 220 -204 190 l-22 -11
28 -60 c15 -32 55 -104 88 -159 91 -152 105 -188 111 -283 5 -83 -3 -153 -39
-335 -37 -191 -26 -313 54 -617 43 -161 57 -270 35 -270 -8 0 -22 22 -32 53
-51 145 -174 443 -254 613 -50 105 -95 208 -101 230 -15 55 -13 301 4 489 17
187 19 417 4 499 -24 132 -88 229 -285 437 -80 85 -164 180 -185 211 -22 32
-62 84 -89 118 -48 57 -53 60 -96 60 -43 0 -44 -1 -38 -27 9 -37 33 -71 125
-176 126 -143 142 -196 158 -512 13 -258 25 -303 152 -551 53 -105 104 -210
112 -235 22 -67 30 -119 17 -119 -6 0 -45 53 -87 118 -109 167 -208 305 -343
477 -64 83 -120 159 -123 170 -4 11 -11 111 -17 223 -16 316 -52 488 -136 655
-79 156 -142 226 -349 386 -82 64 -188 152 -235 197 -114 109 -152 134 -206
134 -26 0 -44 -5 -44 -11 0 -20 39 -76 64 -92 69 -45 178 -143 205 -183 39
-60 56 -114 80 -254 32 -193 73 -274 226 -456 204 -242 261 -328 272 -416 l6
-43 -154 150 c-171 165 -388 362 -489 442 -102 80 -106 87 -145 228 -125 450
-207 629 -354 768 -49 47 -89 72 -207 128 -81 38 -184 96 -229 129 -114 82
-175 103 -175 59 0 -31 18 -59 82 -126 45 -48 71 -88 113 -178 101 -214 190
-325 415 -515 63 -53 132 -116 153 -139 39 -43 85 -126 75 -136 -3 -3 -72 39
-154 94 -82 54 -207 133 -279 174 -113 64 -138 84 -193 148 -35 41 -106 120
-159 177 -199 215 -444 331 -791 376 -223 29 -595 19 -762 -21 -60 -14 -130
-65 -130 -94 0 -11 61 -20 202 -28 115 -7 145 -13 193 -35 82 -37 162 -97 316
-236 219 -198 319 -256 501 -291 88 -17 287 -15 455 5 l142 17 108 -62 c227
-131 496 -312 546 -367 18 -20 18 -20 -15 -28 -112 -25 -214 3 -415 114 -256
142 -370 164 -633 123 -195 -30 -332 -41 -522 -41 l-168 0 0 -34 c0 -32 2 -35
48 -45 26 -6 85 -15 131 -21 109 -15 145 -27 271 -96 58 -32 157 -82 220 -113
l115 -56 205 2 c113 1 270 6 350 12 80 6 254 14 387 18 275 7 242 15 369 -92
210 -178 584 -557 584 -591 0 -14 -8 -15 -47 -9 -111 16 -188 61 -360 206
-218 185 -279 205 -683 229 -197 12 -257 20 -403 55 -91 22 -187 33 -187 20 0
-2 5 -16 12 -31 13 -27 65 -55 168 -89 92 -30 140 -59 255 -156 232 -194 281
-222 436 -248 62 -11 220 -34 349 -51 473 -62 592 -83 629 -113 71 -59 511
-730 511 -781 0 -11 -30 -6 -63 10 -62 32 -116 85 -232 229 -197 245 -255 279
-641 379 -285 74 -263 66 -414 139 -63 30 -126 58 -139 62 -23 7 -23 6 -17
-31 9 -46 23 -59 135 -121 99 -54 122 -76 297 -284 73 -85 148 -169 167 -186
41 -36 151 -80 482 -193 212 -73 423 -152 508 -191 42 -19 149 -238 264 -539
51 -134 127 -379 120 -387 -9 -8 -61 24 -88 54 -39 43 -79 105 -154 243 -159
290 -198 326 -530 490 -198 98 -319 170 -439 262 l-78 60 -26 -25 -25 -26 115
-118 c130 -134 150 -161 237 -328 68 -128 131 -224 177 -266 16 -14 153 -104
304 -199 285 -179 535 -347 564 -379 36 -39 157 -744 132 -768 -9 -10 -36 18
-57 58 -10 21 -42 107 -70 191 -28 84 -67 187 -87 228 -53 110 -162 214 -382
364 -223 152 -262 185 -304 254 -19 31 -46 68 -60 81 l-26 24 0 -39 c0 -23 15
-71 36 -119 20 -44 54 -145 76 -224 63 -232 118 -346 216 -453 31 -34 134
-127 227 -207 94 -80 234 -208 313 -285 l142 -139 0 -244 c0 -334 -23 -642
-48 -651 -7 -2 -22 18 -37 51 -29 62 -45 174 -45 312 0 224 -65 338 -361 640
-206 210 -208 213 -249 353 -16 50 -24 53 -39 11 -16 -46 -14 -79 9 -151 13
-41 24 -112 30 -203 9 -144 34 -265 68 -332 11 -21 64 -94 117 -163 130 -167
240 -321 369 -516 105 -160 106 -161 106 -221 0 -108 -49 -325 -152 -671 -52
-175 -68 -201 -88 -146 -16 42 -12 208 11 400 l22 181 -22 74 c-28 92 -93 216
-197 379 -45 69 -100 159 -122 201 -39 70 -42 81 -42 153 l0 77 -32 -3 -33 -3
-6 -130 c-4 -71 -14 -186 -23 -255 -31 -238 -22 -290 78 -495 41 -82 92 -193
114 -245 67 -162 201 -504 208 -533 5 -21 -8 -62 -52 -170 -93 -227 -320 -667
-344 -667 -13 0 -22 74 -15 127 4 26 29 104 55 173 125 322 121 380 -62 870
l-80 215 6 102 c4 57 5 103 2 103 -20 0 -57 -27 -61 -44 -2 -12 -12 -61 -21
-111 -9 -49 -38 -155 -64 -235 -83 -251 -101 -426 -54 -555 56 -157 174 -618
192 -755 l9 -63 -129 -180 c-245 -342 -477 -615 -486 -573 -7 34 40 156 110
278 93 166 136 256 149 320 16 74 5 220 -32 428 -43 241 -44 397 -2 506 9 23
-31 17 -54 -9 -12 -12 -37 -64 -56 -115 -19 -51 -53 -123 -76 -160 -83 -139
-165 -353 -195 -511 -18 -94 -20 -253 -6 -416 5 -60 16 -188 25 -283 8 -96 17
-177 20 -181 9 -16 -312 -311 -502 -462 -95 -76 -211 -154 -218 -147 -3 3 0
29 6 57 15 69 79 163 228 334 67 76 133 160 146 188 48 94 72 254 79 519 5
186 14 230 61 302 29 43 30 57 10 84 -14 18 -15 18 -40 -11 -14 -16 -45 -64
-70 -105 -25 -41 -80 -113 -121 -160 -69 -78 -200 -274 -254 -379 -67 -133
-91 -243 -134 -619 -31 -268 -38 -301 -68 -324 -106 -85 -364 -242 -558 -339
-160 -79 -180 -87 -180 -64 0 26 90 105 232 203 73 50 148 105 165 122 71 67
122 191 213 515 34 121 71 250 81 286 13 44 36 89 69 134 28 37 50 72 50 76 0
14 -38 11 -69 -5 -15 -8 -53 -44 -85 -81 -32 -36 -92 -91 -134 -122 -168 -127
-298 -283 -388 -467 -29 -61 -88 -212 -130 -336 -78 -232 -148 -391 -187 -427
-45 -42 -550 -228 -749 -277 -201 -48 -216 -44 -130 37 36 33 107 74 273 155
123 61 246 128 274 149 69 53 117 120 166 232 84 192 158 337 194 378 20 23
67 65 104 93 44 32 71 60 73 75 14 68 -51 49 -232 -70 -52 -35 -156 -93 -230
-130 -222 -109 -285 -174 -555 -565 -176 -256 -314 -424 -375 -455 -34 -18
-148 -39 -380 -70 -342 -46 -381 -45 -329 12 36 38 99 66 279 123 292 93 338
127 496 368 127 194 161 233 250 288 65 41 114 87 114 109 0 16 -104 -8 -256
-58 -87 -30 -202 -64 -254 -77 -148 -35 -207 -68 -321 -177 -55 -53 -185 -201
-289 -328 -105 -128 -211 -249 -237 -269 l-46 -36 -138 0 -137 0 -60 51 c-66
56 -135 136 -290 336 -168 217 -260 307 -380 367 -28 14 -118 44 -200 66 -81
22 -201 57 -266 80 -66 22 -142 43 -170 46 l-51 7 30 -33 c17 -18 58 -50 91
-71 86 -55 138 -115 249 -284 161 -248 225 -295 530 -395 204 -67 241 -85 267
-134 10 -19 7 -19 -113 -13 -122 6 -307 30 -504 64 l-99 17 -75 71 c-93 88
-165 180 -331 425 -240 352 -307 421 -526 533 -82 42 -198 108 -259 147 -96
62 -200 108 -213 96 -13 -14 40 -84 102 -134 93 -75 135 -140 223 -345 128
-295 152 -320 472 -481 124 -63 250 -131 279 -153 47 -34 74 -75 59 -89 -9 -9
-229 53 -447 126 -250 83 -443 164 -476 199 -40 41 -105 188 -194 435 -45 126
-97 264 -115 306 -64 154 -187 303 -387 471 -64 55 -136 122 -160 150 -45 53
-83 79 -118 79 -29 0 -26 -11 24 -77 62 -83 68 -97 125 -313 71 -269 124 -430
173 -528 46 -95 68 -115 254 -238 118 -78 208 -158 217 -193 3 -12 1 -21 -4
-21 -17 0 -282 136 -409 210 -161 94 -311 191 -337 219 -22 24 -39 91 -48 196
-13 139 -55 462 -69 531 -37 176 -166 409 -328 595 -42 47 -100 124 -131 171
-30 47 -69 95 -87 108 l-33 23 7 -38 c4 -22 19 -62 33 -89 42 -82 44 -100 53
-351 13 -348 32 -416 159 -565 160 -188 236 -288 268 -355 34 -71 42 -115 22
-115 -43 0 -301 213 -628 517 l-84 78 24 220 c29 282 32 568 6 699 -36 177
-97 333 -191 486 -25 41 -58 112 -71 157 -26 82 -67 143 -98 143 -13 0 -13 -7
1 -63 24 -90 19 -211 -18 -442 -17 -110 -34 -249 -37 -310 -5 -100 -3 -116 20
-183 14 -40 62 -138 108 -218 94 -167 130 -250 136 -314 l4 -45 -56 60 c-140
150 -370 445 -498 640 l-66 100 45 205 c59 276 88 390 137 539 38 115 42 135
41 226 -1 108 -22 210 -88 425 -20 63 -41 149 -47 192 -12 77 -55 175 -74 171
-6 -2 -13 -57 -16 -125 -6 -136 -7 -139 -111 -427 -95 -264 -112 -335 -105
-436 7 -101 25 -169 86 -320 52 -129 67 -200 56 -266 -9 -53 -14 -48 -100 106
-123 222 -315 639 -315 686 0 16 123 343 176 467 25 59 86 193 135 298 94 203
112 268 103 377 -2 28 -11 156 -19 282 -9 127 -18 241 -21 254 l-5 24 -24 -24
c-18 -18 -26 -42 -34 -96 -11 -82 -23 -106 -174 -343 -108 -170 -164 -279
-196 -383 -17 -57 -19 -76 -10 -120 36 -187 51 -463 29 -522 -20 -54 -40 -26
-86 120 -75 236 -164 628 -164 722 0 12 58 108 129 215 111 167 187 272 389
538 57 74 107 172 126 245 9 33 21 121 27 195 6 74 19 172 30 217 20 85 25
173 11 173 -16 0 -52 -41 -52 -59 0 -10 -16 -50 -35 -88 -29 -57 -69 -105
-239 -280 -113 -116 -219 -233 -235 -259 -60 -93 -91 -238 -91 -422 0 -53 -6
-119 -14 -147 -15 -59 -53 -135 -66 -135 -23 0 -40 208 -46 580 l-6 325 169
156 c92 86 242 222 333 301 91 80 185 169 209 197 94 113 149 236 201 456 16
66 45 154 65 197 26 54 35 87 33 113 l-3 37 -25 -20 c-14 -11 -38 -46 -54 -78
-34 -72 -75 -106 -321 -272 -99 -66 -208 -146 -241 -176 -79 -71 -133 -175
-207 -392 -30 -88 -66 -183 -80 -210 -24 -47 -53 -82 -61 -73 -11 12 68 532
105 691 19 81 24 91 65 126 47 40 210 146 594 385 228 142 247 156 295 219 27
36 82 126 120 200 102 193 152 265 225 323 35 28 76 68 92 89 29 40 38 96 16
96 -7 0 -67 -39 -133 -86 -84 -60 -192 -121 -360 -206 -132 -67 -268 -139
-302 -160 -113 -71 -172 -151 -329 -443 -60 -111 -145 -215 -176 -215 -15 0
-14 11 9 93 40 147 128 385 220 596 47 108 90 202 96 209 22 27 110 63 519
210 229 83 431 158 449 168 48 24 127 102 259 254 148 170 165 186 275 253 96
59 119 79 127 113 10 40 -6 48 -50 25 -148 -76 -350 -146 -592 -205 -177 -44
-320 -110 -403 -186 -31 -28 -107 -112 -171 -188 -63 -75 -138 -154 -166 -176
-46 -35 -119 -70 -129 -61 -24 24 496 792 553 816 12 5 170 29 351 54 182 25
415 59 519 75 236 37 247 43 466 225 164 137 187 151 333 202 l137 47 0 38 c0
47 4 46 -154 9 -127 -31 -177 -37 -542 -71 -312 -29 -357 -47 -595 -236 -167
-134 -258 -184 -330 -184 -27 0 -49 5 -49 10 0 31 313 344 555 555 l143 125
139 0 c76 0 280 -9 453 -20 415 -26 539 -26 616 0 32 11 154 67 269 125 192
96 218 107 305 121 134 21 193 39 208 65 12 18 12 23 0 30 -7 5 -98 8 -203 7
-168 -2 -216 2 -415 31 -345 51 -406 43 -640 -78 -312 -161 -268 -144 -389
-149 -61 -3 -116 0 -126 5 -15 9 -9 16 41 55 135 103 443 297 581 366 l58 29
115 -14 c63 -9 196 -16 295 -17 178 -1 181 -1 267 30 113 41 211 102 328 208
261 235 340 291 452 320 31 8 116 18 188 22 72 4 133 11 136 16 3 4 -3 25 -13
46 -20 41 -36 47 -205 76 -177 31 -355 40 -511 27 -454 -38 -800 -212 -1061
-534 -94 -117 -101 -123 -221 -190 -55 -31 -174 -103 -264 -161 -91 -58 -168
-106 -172 -106 -9 0 2 34 25 78 17 32 97 109 226 219 196 166 312 319 391 518
15 37 45 82 80 120 67 72 119 143 119 162 0 21 -60 15 -102 -10z m-1797 -9154
c13 -16 12 -17 -3 -4 -17 13 -22 21 -14 21 2 0 10 -8 17 -17z"/>
<path d="M6275 10758 c-3 -7 -6 -146 -7 -308 l-3 -295 -124 165 c-145 193
-213 279 -223 279 -5 1 -8 -350 -8 -779 l0 -779 148 -198 c81 -109 162 -219
180 -245 l33 -47 -3 -131 -3 -131 -75 56 c-238 179 -398 219 -980 245 -475 22
-754 72 -1019 184 -233 98 -346 206 -396 379 -14 47 -24 64 -58 88 -112 81
-249 77 -337 -11 -126 -126 -77 -323 106 -426 35 -20 64 -38 64 -40 0 -6 -334
-753 -617 -1379 -455 -1006 -756 -1657 -861 -1860 l-52 -100 68 -68 c240 -244
597 -444 955 -536 215 -56 308 -66 587 -66 222 0 272 3 384 23 373 67 709 217
986 439 94 75 220 192 220 204 0 5 -16 23 -35 41 -28 27 -79 130 -264 538
-126 278 -450 993 -721 1590 -271 597 -495 1094 -498 1104 -4 16 -1 18 19 12
13 -3 143 -29 289 -57 765 -145 990 -195 1253 -279 256 -82 478 -184 636 -293
144 -100 284 -258 335 -381 15 -35 16 -245 16 -2357 0 -1276 -3 -2319 -7
-2319 -5 1 -78 39 -163 85 -85 46 -156 81 -158 77 -1 -4 71 -172 161 -372 292
-651 283 -634 311 -611 8 7 18 23 22 34 4 12 72 164 152 337 128 279 272 604
272 616 0 5 -175 -83 -258 -130 -50 -28 -64 -32 -68 -21 -3 8 -4 1055 -2 2327
l4 2313 23 45 c112 215 338 399 654 534 304 130 603 208 1322 346 203 39 407
80 453 91 47 11 87 17 90 15 7 -8 -42 -119 -490 -1106 -234 -514 -517 -1137
-629 -1385 -112 -247 -237 -517 -279 -600 -63 -127 -80 -152 -108 -165 l-32
-16 67 -65 c169 -165 343 -286 568 -394 207 -101 398 -162 625 -200 129 -22
448 -31 591 -16 497 51 927 246 1309 593 l74 67 -28 48 c-40 69 -225 448 -356
728 -356 760 -1163 2550 -1158 2566 2 5 39 30 83 56 59 36 87 60 107 93 80
130 51 296 -62 360 -38 21 -58 25 -125 25 -67 0 -88 -5 -130 -27 -65 -34 -88
-62 -104 -123 -27 -112 -85 -191 -196 -270 -237 -169 -614 -258 -1225 -290
-372 -19 -525 -38 -662 -81 -105 -33 -242 -104 -319 -166 -32 -26 -61 -48 -64
-48 -3 0 -5 59 -5 131 l0 130 58 82 c32 45 112 154 177 241 65 88 121 173 124
190 3 17 4 370 1 785 l-5 755 -51 -60 c-28 -32 -89 -111 -134 -174 -46 -63
-102 -137 -124 -164 l-41 -50 -5 305 -5 304 -123 3 c-92 2 -124 -1 -127 -10z
m165 -247 c0 -149 -5 -171 -40 -171 -36 0 -40 15 -40 157 0 119 1 121 53 122
l27 1 0 -109z m-293 -400 c122 -164 123 -165 123 -243 0 -38 -4 -68 -10 -68
-5 0 -23 21 -41 48 -18 26 -55 76 -84 112 -108 137 -115 151 -115 231 l0 72
21 -19 c12 -10 60 -70 106 -133z m628 34 c-6 -45 -6 -45 -137 -218 -104 -136
-118 -146 -118 -79 1 73 18 106 136 261 l108 143 9 -33 c5 -18 6 -52 2 -74z
m-652 -367 c146 -191 149 -196 145 -264 l-3 -59 -92 122 c-139 183 -153 207
-153 270 0 29 2 53 4 53 3 0 47 -55 99 -122z m629 -27 c-16 -25 -73 -104 -128
-176 l-99 -130 -3 44 c-2 25 -1 54 2 67 5 20 184 271 230 322 l21 24 3 -53 c3
-43 -2 -60 -26 -98z m-595 -347 l113 -149 0 -58 c0 -50 -3 -58 -17 -55 -9 2
-31 22 -48 45 -16 22 -65 88 -107 145 -78 104 -78 105 -78 167 0 46 3 62 13
59 6 -2 63 -71 124 -154z m623 98 c0 -52 -4 -65 -40 -116 -81 -115 -191 -256
-200 -256 -6 0 -10 24 -10 54 0 49 5 60 53 127 29 41 70 99 92 129 72 102 86
120 96 120 5 0 9 -26 9 -58z m-652 -407 c139 -185 142 -190 142 -258 0 -54 -1
-58 -16 -46 -27 22 -225 290 -235 318 -12 31 -1 103 14 99 7 -2 49 -53 95
-113z m652 68 c0 -27 -8 -62 -18 -79 -30 -55 -212 -294 -224 -294 -4 0 -10 15
-13 33 -11 55 8 87 195 335 22 28 44 52 50 52 5 0 10 -21 10 -47z m2615 -993
c986 -2154 1231 -2701 1218 -2714 -4 -3 -656 -6 -1450 -6 -1246 0 -1443 2
-1443 15 0 12 76 185 300 680 364 805 1133 2502 1137 2508 3 5 9 5 13 0 4 -4
106 -222 225 -483z m-5731 413 c195 -395 1416 -3084 1416 -3119 0 -12 -213
-14 -1447 -11 -1442 2 -1448 2 -1445 22 2 11 20 56 39 100 47 106 895 1972
1015 2235 296 646 382 830 388 830 3 0 19 -26 34 -57z m64 -18 c-3 -3 -9 2
-12 12 -6 14 -5 15 5 6 7 -7 10 -15 7 -18z m16 -31 c3 -8 2 -12 -4 -9 -6 3
-10 10 -10 16 0 14 7 11 14 -7z m-157 -3430 c-3 -3 -12 -4 -19 -1 -8 3 -5 6 6
6 11 1 17 -2 13 -5z"/>
</g>
</svg>
